<?xml version="1.0" standalone="no"?>
<!DOCTYPE svg PUBLIC "-//W3C//DTD SVG 20010904//EN"
 "http://www.w3.org/TR/2001/REC-SVG-20010904/DTD/svg10.dtd">
<svg version="1.0" xmlns="http://www.w3.org/2000/svg"
 width="700.000000pt" height="700.000000pt" viewBox="0 0 700.000000 700.000000"
 preserveAspectRatio="xMidYMid meet">
<metadata>
Created by potrace 1.11, written by Peter Selinger 2001-2013
</metadata>
<g transform="translate(0.000000,700.000000) scale(0.100000,-0.100000)"
fill="#000000" stroke="none">
<path d="M3435 6963 c-32 -19 -167 -96 -299 -170 -405 -228 -540 -305 -566
-321 -14 -9 -27 -16 -30 -15 -3 1 -16 -6 -28 -16 l-23 -17 0 -582 c0 -320 2
-585 5 -591 3 -5 52 -35 108 -66 153 -86 452 -257 456 -260 4 -4 3 -658 -2
-662 -1 -2 -142 77 -312 176 l-309 178 -1 316 c0 174 -2 318 -5 320 -3 3 -186
106 -304 172 -74 41 -419 237 -557 316 -138 79 -156 87 -174 70 -5 -5 -31 -22
-59 -37 -75 -41 -613 -346 -745 -423 -63 -36 -128 -73 -145 -82 l-30 -16 -3
-590 -2 -589 167 -95 c687 -389 833 -473 833 -479 0 -4 -82 -54 -182 -110
-101 -57 -295 -167 -433 -246 -137 -78 -272 -154 -300 -169 -27 -16 -58 -33
-68 -39 -16 -10 -17 -47 -15 -601 3 -578 3 -590 23 -600 11 -5 58 -32 105 -59
47 -27 105 -60 130 -74 25 -14 87 -49 138 -78 52 -30 96 -54 98 -54 2 0 21
-11 42 -23 20 -13 57 -35 82 -49 25 -14 113 -64 197 -111 83 -48 162 -92 175
-97 21 -10 39 -3 148 59 68 39 124 71 126 71 3 0 152 86 174 100 8 6 22 13 30
17 8 4 56 30 105 58 50 29 110 63 135 77 25 14 61 34 80 45 19 11 78 44 130
73 52 29 97 55 100 57 2 2 4 167 5 366 l0 361 240 138 c254 146 256 148 335
191 l50 27 1 -32 c1 -39 0 -686 0 -709 -1 -9 -11 -21 -23 -27 -13 -7 -50 -27
-83 -46 -33 -20 -87 -50 -120 -69 -229 -129 -329 -187 -337 -195 -7 -7 -12
-755 -8 -1143 l0 -36 288 -163 c158 -90 296 -168 307 -174 51 -28 303 -171
325 -185 14 -8 40 -24 58 -33 l32 -18 373 211 c204 116 432 245 505 287 l132
75 -2 591 -3 590 -119 68 c-66 37 -120 68 -121 68 -2 0 -255 143 -314 178 -20
11 -20 759 0 754 7 -2 40 -19 73 -39 34 -20 86 -49 116 -66 30 -17 67 -38 82
-49 14 -10 29 -18 32 -18 3 0 60 -32 128 -72 68 -39 137 -79 153 -88 l30 -17
1 -361 c0 -199 3 -364 5 -365 2 -2 67 -39 144 -82 231 -130 329 -185 575 -325
129 -74 247 -140 262 -147 28 -15 51 -5 211 89 26 15 50 28 52 28 2 0 36 19
77 43 40 24 98 57 128 74 97 53 524 295 548 310 l22 13 0 588 0 588 -387 220
c-212 120 -412 233 -442 250 -31 17 -85 47 -120 66 l-63 36 68 40 c38 21 130
74 204 116 74 42 142 81 150 86 8 6 22 13 30 17 8 4 53 29 100 56 47 27 114
65 150 85 36 19 72 41 81 48 8 8 19 14 23 14 3 0 51 26 106 57 l100 57 0 587
0 587 -77 45 c-43 24 -98 55 -123 69 -25 14 -142 81 -260 148 -118 68 -233
133 -255 146 -22 12 -96 54 -164 93 -79 45 -131 69 -143 66 -9 -4 -172 -94
-360 -202 -189 -107 -363 -206 -388 -220 -160 -89 -242 -138 -247 -146 -3 -6
-7 -150 -7 -320 l-1 -309 -155 -90 c-85 -50 -179 -104 -208 -120 -30 -17 -99
-57 -154 -89 -56 -33 -102 -58 -104 -56 -4 4 -7 657 -3 661 8 7 519 297 544
308 l25 11 0 594 0 593 -22 10 c-13 6 -39 20 -58 31 -40 24 -458 262 -570 324
-41 23 -110 63 -153 89 -43 25 -81 46 -84 46 -3 0 -27 13 -52 28 -69 42 -72
42 -136 5z m-1162 -3180 c94 -54 187 -107 206 -118 172 -96 211 -119 211 -125
0 -3 -66 -44 -147 -90 -82 -46 -164 -94 -183 -106 -104 -64 -318 -184 -329
-184 -6 0 -125 65 -264 143 -138 79 -271 154 -294 167 -24 13 -43 27 -43 30 0
4 46 32 103 64 56 31 125 69 152 84 48 28 78 45 300 173 55 31 104 58 109 58
5 1 85 -43 179 -96z m2729 44 c51 -30 113 -65 138 -79 25 -14 115 -65 200
-113 85 -49 172 -97 193 -109 20 -11 37 -23 37 -26 0 -3 -19 -17 -42 -30 -24
-13 -157 -88 -295 -167 -139 -78 -258 -143 -264 -143 -6 0 -155 83 -330 185
-176 102 -325 185 -331 185 -8 0 -8 3 -2 9 7 7 342 202 444 259 14 7 52 29 85
47 33 19 63 35 67 35 4 0 49 -24 100 -53z"/>
</g>
</svg>
